<svg width="24" height="34" viewBox="0 0 24 34" fill="none" xmlns="http://www.w3.org/2000/svg">
<path d="M23.6666 11.9997C23.6666 10.4676 23.3648 8.9505 22.7785 7.53504C22.1922 6.11957 21.3328 4.83345 20.2495 3.7501C19.1661 2.66675 17.88 1.80738 16.4646 1.22108C15.0491 0.634775 13.532 0.333008 11.9999 0.333008C10.4678 0.333008 8.95074 0.634775 7.53528 1.22108C6.11981 1.80738 4.83369 2.66675 3.75034 3.7501C2.66699 4.83345 1.80763 6.11957 1.22132 7.53504C0.635019 8.9505 0.333252 10.4676 0.333252 11.9997C0.333252 14.3113 1.01659 16.4613 2.17492 18.2747H2.16159C6.09492 24.433 11.9999 33.6663 11.9999 33.6663L21.8383 18.2747H21.8266C23.0273 16.402 23.6658 14.2242 23.6666 11.9997ZM11.9999 16.9997C10.6738 16.9997 9.40207 16.4729 8.46439 15.5352C7.5267 14.5975 6.99992 13.3258 6.99992 11.9997C6.99992 10.6736 7.5267 9.40182 8.46439 8.46414C9.40207 7.52646 10.6738 6.99967 11.9999 6.99967C13.326 6.99967 14.5978 7.52646 15.5355 8.46414C16.4731 9.40182 16.9999 10.6736 16.9999 11.9997C16.9999 13.3258 16.4731 14.5975 15.5355 15.5352C14.5978 16.4729 13.326 16.9997 11.9999 16.9997Z" fill="white"/>
</svg>
